<svg width="203" height="54" viewBox="0 0 203 54" fill="none" xmlns="http://www.w3.org/2000/svg">
<g clip-path="url(#clip0_5_125)">
<path d="M26.4227 53.0236C41.0156 53.0236 52.8454 41.1539 52.8454 26.5118C52.8454 11.8697 41.0156 0 26.4227 0C11.8298 0 0 11.8697 0 26.5118C0 41.1539 11.8298 53.0236 26.4227 53.0236Z" fill="#E9579F"/>
<path d="M11.2035 20.9542C11.148 21.0536 11.0974 21.1531 11.0479 21.2526C10.8499 21.6573 10.6945 22.0816 10.584 22.5186C10.3778 23.3332 10.354 24.1785 10.3154 25.013C10.3154 25.0508 10.3154 25.0866 10.3094 25.1234C10.2975 25.3591 10.2836 25.5958 10.2628 25.8305C10.3803 25.9744 10.5104 26.1075 10.6514 26.2283C10.6722 26.0612 10.6881 25.8951 10.6999 25.731C10.7783 24.7952 10.7584 23.8414 10.92 22.9174C11.0202 22.3481 11.198 21.7952 11.4483 21.2744C11.4959 21.175 11.5474 21.0755 11.601 20.9761C11.4671 20.9711 11.3363 20.9631 11.2035 20.9542ZM45.6738 33.5005C45.4201 32.8315 45.1627 32.1625 44.9017 31.4935C44.373 30.1336 43.8259 28.7813 43.2602 27.4367C42.7025 26.102 42.1309 24.7736 41.5454 23.4515C40.9735 22.1675 40.3481 20.9015 39.8435 19.5897C39.3521 18.2977 39.0696 16.9352 39.007 15.5538C38.9376 14.2071 38.9802 12.8585 38.8761 11.5129C38.777 10.2787 38.5788 8.95192 37.9355 7.86984C37.6676 7.3927 37.2633 7.00711 36.7747 6.76291C36.2474 6.51626 35.6309 6.51725 35.0798 6.67936C33.8586 7.0384 33.0815 8.07174 32.4035 9.09016C31.5914 10.3168 30.7806 11.5451 29.9711 12.775C29.6232 13.3021 29.2941 13.861 28.853 14.3195C28.416 14.7622 27.8421 15.0427 27.2254 15.1152C26.6005 15.1902 25.97 15.2058 25.3421 15.1619C24.7196 15.1341 24.0853 15.0495 23.5906 14.6338C23.1337 14.2489 22.8482 13.687 22.5638 13.1738C22.2129 12.5433 21.8729 11.9074 21.5438 11.2662C21.2147 10.6251 20.8955 9.98161 20.5863 9.33582C20.3296 8.79577 20.0907 8.24181 19.7566 7.74453C19.4665 7.28072 19.0615 6.90035 18.5811 6.64058C18.1709 6.43916 17.7169 6.34443 17.2608 6.36509C16.3578 6.40487 15.428 6.85142 14.9106 7.61126C14.5825 8.09461 14.4586 8.66847 14.4299 9.24531C14.3962 9.9415 14.4477 10.6556 14.4705 11.3567C14.5168 12.8486 14.5637 14.3404 14.6113 15.8322C14.6321 16.5095 14.6529 17.1888 14.6737 17.8651C13.5092 18.3382 12.4949 19.1203 11.7397 20.1277C11.6832 20.2023 11.6277 20.2789 11.5752 20.3565L11.9955 20.3376C12.049 20.26 12.1045 20.1844 12.162 20.1098C12.3935 19.8053 12.6509 19.5215 12.9312 19.2615C13.4559 18.7758 14.0593 18.3833 14.7153 18.1008C14.8254 18.2082 15.1178 18.1386 15.1118 17.9715C15.0669 16.5175 15.0216 15.0631 14.976 13.6084C14.9542 12.8864 14.9318 12.1647 14.9086 11.4433C14.8868 10.7471 14.8402 10.0509 14.8581 9.35471C14.8749 8.78583 14.9572 8.1891 15.2962 7.71469C15.5562 7.35504 15.9097 7.07397 16.3181 6.90214C16.7232 6.71935 17.1718 6.65595 17.6114 6.71935C18.0511 6.78274 18.4637 6.97032 18.8011 7.26018C19.2283 7.63712 19.5237 8.14633 19.7794 8.65256C20.0718 9.22741 20.3345 9.81817 20.622 10.396C21.2256 11.6163 21.8342 12.8585 22.5519 14.0231C22.8492 14.5055 23.218 14.9381 23.7344 15.1888C24.2736 15.4503 24.8901 15.4871 25.4779 15.4971C26.6575 15.5299 27.9559 15.5388 28.9184 14.7422C29.3754 14.3613 29.7114 13.867 30.0355 13.3747C30.432 12.778 30.8255 12.1812 31.216 11.5845L32.3985 9.79431C32.7574 9.25226 33.1023 8.7003 33.5156 8.19407C34.2244 7.33477 35.4148 6.51526 36.5527 7.07818C37.5975 7.59634 37.9989 8.94595 38.2189 9.99918C38.7601 12.585 38.2824 15.2703 38.8414 17.8562C39.1279 19.1839 39.6879 20.4291 40.2479 21.6583C40.8295 22.9367 41.3997 24.2206 41.9588 25.5102C43.0821 28.1113 44.146 30.736 45.1505 33.3841C45.2734 33.7073 45.4092 34.0296 45.5103 34.3608C45.6094 34.6731 45.6273 34.9873 45.4419 35.2708C45.2853 35.5105 45.0454 35.6885 44.8244 35.8675C44.5518 36.0794 44.2792 36.2912 44.0027 36.501C42.9024 37.3365 41.781 38.1444 40.6385 38.9248C40.1359 39.2679 39.6265 39.6031 39.116 39.9362C39.0717 39.9463 39.0297 39.9645 38.9921 39.9899C37.0733 41.2621 35.0568 42.3792 32.9616 43.3306C30.8446 44.2983 28.6507 45.0864 26.4027 45.6867C25.219 46.0108 24.006 46.216 22.7818 46.2994C21.5326 46.3677 20.2799 46.3344 19.036 46.1999C17.8188 46.0786 16.6056 45.8936 15.4023 45.6728C14.5508 45.5177 13.5636 45.2959 12.9728 44.6067C12.2264 43.7364 12.5049 42.5509 12.7052 41.5335C12.8043 41.0292 12.7706 40.5797 12.4802 40.1481C12.2502 39.8069 11.938 39.5324 11.7149 39.1863C11.6055 39.0193 11.5375 38.8283 11.5167 38.6294C11.4989 38.4623 11.2352 38.524 11.1539 38.5797C10.838 38.7967 10.5466 39.0474 10.2846 39.3276C9.91167 38.3475 9.80394 37.2858 9.9724 36.2504C9.99619 36.1052 9.80191 36.0863 9.71171 36.1052L8.71554 36.3041C8.6465 34.9539 9.0049 33.6164 9.73946 32.4831C9.81579 32.3647 9.75334 32.2762 9.62944 32.2444C9.31763 32.1661 8.99577 32.1359 8.6749 32.1549C8.82083 31.7453 9.02086 31.3573 9.26963 31.0012C9.3628 30.8729 9.24881 30.7456 9.1041 30.7615L7.5023 30.9475L10.1895 28.0414C10.2097 28.0206 10.2223 27.9936 10.2254 27.9647C10.2284 27.9359 10.2217 27.9068 10.2063 27.8822C10.2163 27.8708 10.2246 27.8581 10.2311 27.8445C10.3017 27.685 10.3632 27.5216 10.4155 27.3551C10.4512 27.2427 10.4819 27.1304 10.5086 27.016C10.3786 26.9376 10.2571 26.846 10.1459 26.7425C10.1211 26.8797 10.0913 27.018 10.0557 27.1542C9.99 27.4095 9.90381 27.6589 9.79794 27.9002C9.79423 27.9104 9.79423 27.9217 9.79794 27.932C8.82127 28.9862 7.84592 30.0408 6.87189 31.0956C6.7579 31.217 6.90856 31.3493 7.03742 31.3353L8.72248 31.1364C8.49051 31.5043 8.30788 31.9012 8.1793 32.317C8.13965 32.4393 8.24571 32.5328 8.36961 32.5159C8.66295 32.4747 8.96087 32.4794 9.25278 32.5298C8.51868 33.7259 8.18009 35.1242 8.28536 36.5249C8.29725 36.6671 8.4271 36.695 8.54803 36.6701L9.50653 36.4802C9.36043 37.597 9.52403 38.7326 9.97934 39.7622C10.0497 39.9183 10.2767 39.8945 10.3758 39.7741C10.6037 39.4946 10.8605 39.2402 11.142 39.0153C11.3869 39.7234 12.2086 40.1312 12.3156 40.9049C12.3592 41.2103 12.272 41.5265 12.2115 41.8249C12.1511 42.1233 12.0995 42.3938 12.0678 42.6832C12.0093 43.2222 12.0272 43.7911 12.2561 44.2934C12.6526 45.1517 13.5299 45.5863 14.3972 45.815C14.9017 45.9503 15.4181 46.0368 15.9335 46.1243C16.5679 46.2318 17.2043 46.3292 17.8416 46.4128C20.3752 46.743 22.9384 46.8036 25.4452 46.2556C27.7805 45.7464 30.0712 44.9359 32.2677 43.997C34.448 43.0629 36.549 41.9527 38.55 40.6772C38.7423 40.5539 38.9336 40.4285 39.1229 40.3042C39.161 40.2925 39.1973 40.2758 39.231 40.2545C40.4317 39.4787 41.6115 38.6718 42.7706 37.8337C43.3415 37.422 43.9058 37.002 44.4636 36.5736C44.7371 36.3658 45.0117 36.1569 45.2803 35.9401C45.5014 35.7743 45.6933 35.5726 45.8483 35.3434C46.22 34.7377 45.8959 34.0912 45.6738 33.5005ZM10.6514 26.2283C10.6722 26.0612 10.6881 25.8951 10.6999 25.731C10.7783 24.7952 10.7584 23.8414 10.92 22.9174C11.0202 22.3481 11.198 21.7952 11.4483 21.2744C11.4959 21.175 11.5474 21.0755 11.601 20.9761C11.4671 20.9761 11.3363 20.9651 11.2045 20.9562C11.149 21.0556 11.0984 21.1551 11.0489 21.2545C10.8509 21.6593 10.6955 22.0836 10.585 22.5206C10.3788 23.3351 10.355 24.1805 10.3163 25.015C10.3163 25.0527 10.3163 25.0885 10.3104 25.1253C10.2985 25.3611 10.2846 25.5978 10.2638 25.8325C10.381 25.976 10.5107 26.1078 10.6514 26.2283ZM11.2035 20.9582C11.148 21.0576 11.0974 21.1571 11.0479 21.2565C10.8499 21.6613 10.6945 22.0856 10.584 22.5226C10.3778 23.3371 10.354 24.1825 10.3154 25.0169C10.3154 25.0547 10.3154 25.0905 10.3094 25.1273C10.2975 25.363 10.2836 25.5997 10.2628 25.8345C10.3803 25.9784 10.5104 26.1115 10.6514 26.2323C10.6722 26.0652 10.6881 25.8991 10.6999 25.735C10.7783 24.7991 10.7584 23.8454 10.92 22.9214C11.0202 22.352 11.198 21.7992 11.4483 21.2784C11.4959 21.179 11.5474 21.0795 11.601 20.98C11.4671 20.9711 11.3363 20.9631 11.2035 20.9542V20.9582Z" fill="white"/>
<path d="M10.7958 20.9274C10.5421 20.834 10.1952 20.9493 10.0148 21.1264C9.73524 21.3959 9.7055 21.8991 9.64603 22.2611C9.51123 23.0618 9.45473 23.9051 9.67279 24.6958C9.78799 25.113 9.99076 25.5006 10.2675 25.8326C10.2883 25.5979 10.3022 25.3612 10.3141 25.1255C10.0237 24.5208 9.94339 23.8325 9.97016 23.1722C9.99007 22.7804 10.0374 22.3906 10.1119 22.0055C10.1398 21.8228 10.1769 21.6416 10.2229 21.4625C10.2472 21.3558 10.2913 21.2546 10.3528 21.1642C10.357 21.1604 10.3606 21.156 10.3637 21.1512C10.3783 21.1699 10.3967 21.1852 10.4178 21.196C10.4388 21.2068 10.462 21.2129 10.4856 21.2139C10.6739 21.2288 10.8603 21.2427 11.0486 21.2527C11.0982 21.1532 11.1477 21.0538 11.2042 20.9543C11.0681 20.9463 10.932 20.9374 10.7958 20.9274ZM10.7958 20.9274C10.5421 20.834 10.1952 20.9493 10.0148 21.1264C9.73524 21.3959 9.7055 21.8991 9.64603 22.2611C9.51123 23.0618 9.45473 23.9051 9.67279 24.6958C9.78799 25.113 9.99076 25.5006 10.2675 25.8326C10.2883 25.5979 10.3022 25.3612 10.3141 25.1255C10.0237 24.5208 9.94339 23.8325 9.97016 23.1722C9.99007 22.7804 10.0374 22.3906 10.1119 22.0055C10.1398 21.8228 10.1769 21.6416 10.2229 21.4625C10.2472 21.3558 10.2913 21.2546 10.3528 21.1642C10.357 21.1604 10.3606 21.156 10.3637 21.1512C10.3783 21.1699 10.3967 21.1852 10.4178 21.196C10.4388 21.2068 10.462 21.2129 10.4856 21.2139C10.6739 21.2288 10.8603 21.2427 11.0486 21.2527C11.0982 21.1532 11.1477 21.0538 11.2042 20.9543C11.0681 20.9463 10.932 20.9374 10.7958 20.9274ZM33.9128 21.8454C33.9009 21.4725 33.9049 21.011 33.6858 20.6907C33.4796 20.3924 33.102 20.2422 32.7719 20.1238C32.3776 19.9845 31.9715 19.8813 31.5587 19.8155C30.6924 19.6703 29.8052 19.6325 28.929 19.5928C27.9959 19.549 27.0622 19.5288 26.1278 19.5321C25.208 19.5321 24.2852 19.551 23.3673 19.6136C22.9449 19.6353 22.5255 19.6966 22.1144 19.7966C21.7183 19.9115 21.3363 20.0706 20.9755 20.271C20.5987 20.4868 20.1724 20.6003 19.7385 20.6002C19.2935 20.6002 18.8534 20.5097 18.4143 20.4451C17.5103 20.3125 16.603 20.217 15.6924 20.1587C14.5148 20.0821 13.334 20.0672 12.1548 20.1139C12.013 20.1139 11.8733 20.1238 11.7325 20.1318C11.0099 20.1696 10.2883 20.2313 9.5707 20.3098C9.54067 20.2923 9.5063 20.2837 9.47158 20.285C8.77773 20.2641 8.3416 20.8449 8.32178 21.4934C8.32857 21.8787 8.36168 22.2632 8.4209 22.6441C8.46055 23.017 8.49821 23.39 8.5448 23.7629C8.68357 24.9097 8.92344 26.2334 9.86905 27.0052C9.9296 27.0559 9.99352 27.1024 10.0604 27.1444C10.1744 27.2209 10.2948 27.2874 10.4202 27.3433C10.8569 27.5302 11.3145 27.6638 11.7831 27.7412C12.4274 27.8724 13.1044 27.9619 13.7586 27.8406C14.0797 27.7835 14.3864 27.6631 14.6609 27.4862C14.9353 27.3093 15.1721 27.0796 15.3574 26.8102C15.8322 26.1499 16.2623 25.4517 16.6886 24.7595C17.1148 24.0673 17.5023 23.3671 17.9147 22.6709C17.9563 22.6003 17.988 22.5347 18.0733 22.5158C18.1646 22.5063 18.2566 22.5063 18.3478 22.5158C18.5607 22.5238 18.7728 22.5474 18.9822 22.5864C19.3014 22.646 19.7841 22.7177 20.0091 22.9842C20.2341 23.2507 20.1737 23.6326 20.1826 23.941C20.1938 24.3225 20.2298 24.7029 20.2906 25.0797C20.4043 25.8248 20.6504 26.5433 21.0172 27.2011C21.3382 27.7723 21.7711 28.2723 22.2899 28.6711C22.8463 29.0789 23.488 29.354 24.1662 29.4757C24.9081 29.6026 25.658 29.676 26.4103 29.6955C27.1556 29.7433 27.9038 29.7153 28.6435 29.6119C29.9985 29.3991 31.2375 28.7805 32.0909 27.6855C32.4736 27.1952 32.7632 26.6387 32.9454 26.0434C33.0369 25.7432 33.0974 25.4342 33.1258 25.1215C33.1585 24.7724 33.1188 24.4253 33.1426 24.0782C33.1585 23.8216 33.2576 23.3283 33.5817 23.2975C33.6501 23.2915 33.8157 23.2438 33.8295 23.1582C33.8976 22.7241 33.9254 22.2847 33.9128 21.8454ZM15.4882 26.0106C15.4744 26.0169 15.4614 26.025 15.4496 26.0345C14.3592 26.8938 12.8932 27.1653 11.6393 26.49C11.2814 26.298 10.9627 26.0403 10.6997 25.7302C10.551 25.5523 10.4239 25.3573 10.321 25.1493C10.3161 25.1414 10.3131 25.1324 10.3091 25.1245C10.0187 24.5198 9.93844 23.8316 9.9652 23.1712C9.98511 22.7794 10.0325 22.3896 10.1069 22.0046C10.1365 21.822 10.1752 21.6411 10.2229 21.4625C10.2472 21.3558 10.2913 21.2546 10.3528 21.1642C10.357 21.1604 10.3606 21.156 10.3637 21.1512C10.3783 21.1699 10.3967 21.1852 10.4178 21.196C10.4388 21.2068 10.462 21.2129 10.4856 21.2139C10.6739 21.2288 10.8603 21.2427 11.0486 21.2527C11.1814 21.2606 11.3162 21.2676 11.4451 21.2726C12.3728 21.3172 13.3022 21.3125 14.2294 21.2586C14.6625 21.2338 15.172 21.1701 15.5655 21.3939C16.0492 21.6694 16.0225 22.2999 16.0522 22.7863C16.0958 23.5043 16.1107 24.2234 16.1018 24.9425C16.1003 24.9674 16.1076 24.9921 16.1226 25.0121C15.9164 25.3483 15.7043 25.6794 15.4882 26.0106ZM33.4043 23.1264C33.2118 23.1889 33.0433 23.3094 32.9216 23.4715C32.7323 23.7301 32.6986 24.0464 32.6986 24.3597C32.7106 24.6958 32.7004 25.0324 32.6678 25.3671C32.6264 25.669 32.5557 25.9662 32.4567 26.2543C32.0602 27.4189 31.2078 28.4552 30.0857 28.9764C28.7516 29.597 27.2112 29.5174 25.7829 29.409C25.0474 29.3543 24.2961 29.2837 23.6022 29.0112C23 28.7685 22.4634 28.3865 22.0361 27.8963C21.0836 26.8272 20.6861 25.395 20.6197 23.9867C20.6028 23.6744 20.6504 23.3164 20.5325 23.02C20.4145 22.7236 20.136 22.6053 19.8515 22.5158C19.5006 22.4033 19.1382 22.3309 18.7711 22.2999C18.4559 22.2741 18.0673 22.2293 17.7799 22.3875C17.4924 22.5456 17.3566 22.9424 17.203 23.2119C17.0114 23.5435 16.8174 23.875 16.6212 24.2065L16.5429 24.3318C16.5429 23.8514 16.528 23.3701 16.5012 22.8907C16.4745 22.3706 16.5191 21.6972 16.1117 21.3074C15.7697 20.9812 15.2662 20.9324 14.8172 20.9344C14.1947 20.9344 13.5722 20.9971 12.9477 21.002C12.4987 21.002 12.0487 20.9961 11.6017 20.9732C11.4679 20.9732 11.337 20.9613 11.2052 20.9523C11.0734 20.9434 10.9336 20.9354 10.7978 20.9255C10.5441 20.832 10.1971 20.9473 10.0167 21.1244C9.73722 21.3939 9.70749 21.8971 9.64801 22.2592C9.51321 23.0598 9.45671 23.9032 9.67478 24.6938C9.78997 25.111 9.99275 25.4986 10.2695 25.8306C10.387 25.9745 10.517 26.1077 10.6581 26.2284C11.3649 26.8259 12.2742 27.1266 13.1965 27.0678C13.9014 27.0217 14.5863 26.8142 15.1988 26.4612C14.8687 26.9584 14.5148 27.4488 13.9003 27.6009C13.2857 27.7531 12.6117 27.6377 11.9952 27.5094C11.4798 27.404 10.9584 27.2797 10.5084 27.0062C10.3784 26.9278 10.2568 26.8362 10.1456 26.7327C10.1338 26.7242 10.1228 26.7145 10.1129 26.7038C9.6946 26.301 9.44085 25.766 9.27433 25.212C9.11244 24.6382 9.00394 24.0505 8.9502 23.4566C8.90857 23.0866 8.86991 22.7147 8.82729 22.3437C8.78566 21.9558 8.70636 21.5481 8.77872 21.1552C8.82035 20.9205 8.97102 20.5505 9.24261 20.5127C9.29156 20.5417 9.34967 20.551 9.40517 20.5386C10.1248 20.4537 10.8464 20.393 11.57 20.3566L11.9902 20.3377C12.9246 20.3019 13.8597 20.3042 14.7954 20.3446C15.6983 20.3844 16.6023 20.462 17.4994 20.5754C18.3191 20.6748 19.1626 20.8946 19.9923 20.8061C20.8219 20.7176 21.4632 20.1537 22.2621 19.9657C23.0967 19.7668 23.9928 19.7927 24.8452 19.7728C26.6563 19.7218 28.4689 19.768 30.2751 19.911C31.1572 19.9856 32.1435 20.095 32.9285 20.5416C33.3647 20.7902 33.4241 21.2099 33.4598 21.6724C33.4942 22.1573 33.4756 22.6456 33.4043 23.1264ZM10.7958 20.9274C10.5421 20.834 10.1952 20.9493 10.0148 21.1264C9.73524 21.3959 9.7055 21.8991 9.64603 22.2611C9.51123 23.0618 9.45473 23.9051 9.67279 24.6958C9.78799 25.113 9.99076 25.5006 10.2675 25.8326C10.2883 25.5979 10.3022 25.3612 10.3141 25.1255C10.0237 24.5208 9.94339 23.8335 9.97016 23.1732C9.99007 22.7814 10.0374 22.3906 10.1119 22.0055C10.1398 21.8228 10.1769 21.6416 10.2229 21.4625C10.2472 21.3558 10.2913 21.2546 10.3528 21.1642C10.357 21.1604 10.3606 21.156 10.3637 21.1512C10.3783 21.1699 10.3967 21.1852 10.4178 21.196C10.4388 21.2068 10.462 21.2129 10.4856 21.2139C10.6739 21.2288 10.8603 21.2427 11.0486 21.2527C11.0982 21.1532 11.1477 21.0538 11.2042 20.9543C11.0681 20.9463 10.932 20.9374 10.7958 20.9274Z" fill="white"/>
<path d="M31.9987 21.9506C31.6419 21.0555 30.4693 20.774 29.6198 20.7124C29.0439 20.6845 28.4669 20.6865 27.8912 20.7183L25.9157 20.785C24.7262 20.8238 23.4317 20.7531 22.3404 21.3091C22.312 21.3194 22.2867 21.3368 22.2667 21.3596C22.2468 21.3823 22.2329 21.4098 22.2264 21.4394C21.592 21.9725 21.4334 22.8686 21.5068 23.6891C21.5999 24.7383 21.8279 25.8651 22.3701 26.7782C22.608 27.1912 22.9325 27.5475 23.3212 27.8222C23.7099 28.097 24.1534 28.2837 24.6212 28.3694C25.1673 28.4661 25.7201 28.5196 26.2745 28.5296C26.8413 28.5575 27.4095 28.5315 27.9714 28.452C28.9627 28.2978 29.938 27.9219 30.6745 27.2237C31.3554 26.5812 31.739 25.715 31.9313 24.8089C32.0266 24.342 32.083 23.868 32.0998 23.3917C32.1167 22.9302 32.1742 22.3872 31.9987 21.9506ZM31.6141 24.0143C31.5289 24.8517 31.3287 25.705 30.8678 26.4191C30.3791 27.176 29.6089 27.6832 28.7575 27.9468C27.793 28.2451 26.7691 28.2451 25.7729 28.1656C25.2773 28.1268 24.7748 28.083 24.304 27.9219C23.8841 27.7732 23.5077 27.522 23.2087 27.1909C22.4801 26.3952 22.2056 25.3211 22.0321 24.2798C21.8785 23.3539 21.7546 21.9864 22.7626 21.4752L22.7924 21.4563C23.6002 21.137 24.5062 21.1579 25.3636 21.1281C26.4113 21.0933 27.458 21.0525 28.5067 21.0286C29.378 21.0048 30.3414 21.0137 31.0898 21.5259C31.2655 21.6408 31.4129 21.7942 31.521 21.9745C31.6309 22.2018 31.6824 22.4531 31.6706 22.7054C31.6775 23.1425 31.6586 23.5795 31.6141 24.0143Z" fill="white"/>
<path d="M18.4884 28.4443C17.9819 28.1986 17.3882 28.2046 16.839 28.2255C16.0706 28.2547 15.3047 28.3304 14.5453 28.4523C13.9199 28.5517 13.23 28.6512 12.7552 29.1087C12.5636 29.3042 12.4181 29.5403 12.3294 29.7997C12.2408 30.0591 12.2111 30.3351 12.2428 30.6075C12.3785 32.0535 13.8079 32.7805 15.0182 33.2729C15.0219 33.2966 15.0326 33.3187 15.0488 33.3364C15.065 33.354 15.0861 33.3666 15.1094 33.3723C16.4634 33.7602 17.5646 32.3957 18.2941 31.4548C18.6797 30.9575 19.096 30.4135 19.1981 29.777C19.2435 29.5074 19.1985 29.2302 19.07 28.9891C18.9416 28.7479 18.737 28.5563 18.4884 28.4443ZM18.3031 30.8083C17.9265 31.3624 17.4998 31.8805 17.0283 32.3559C16.6537 32.7278 16.1362 33.1396 15.5812 33.1078C15.5638 33.0945 15.5448 33.0835 15.5247 33.0749C14.5017 32.6711 13.3162 32.1948 12.8385 31.1147C12.7344 30.8908 12.6781 30.6475 12.6733 30.4005C12.6686 30.1536 12.7154 29.9083 12.8107 29.6805C13.0437 29.1574 13.5373 28.9664 14.0646 28.861C14.6924 28.7403 15.3264 28.6553 15.9638 28.6064C16.5218 28.5617 17.1057 28.502 17.6647 28.5806C18.1028 28.6422 18.5677 28.8282 18.7213 29.2837C18.8988 29.8128 18.5945 30.3877 18.3031 30.8113V30.8083Z" fill="white"/>
<path d="M24.6849 34.2126C23.9882 34.7354 23.1813 35.0909 22.3262 35.2518C21.4711 35.4126 20.5907 35.3746 19.7526 35.1405C19.1252 34.9685 18.5195 34.7178 17.8792 34.5875C16.7379 34.3633 15.5567 34.4667 14.4714 34.8859C14.2068 34.9881 13.9497 35.1091 13.7022 35.2479C13.4614 35.3812 13.1858 35.5274 12.9995 35.7353C12.603 36.1739 13.1353 36.7358 13.5476 36.9218C13.8406 37.0392 14.154 37.097 14.4694 37.0918C14.852 37.1008 15.2356 37.0918 15.6183 37.0968L18.0289 37.1028C18.1191 37.1028 18.2697 37.0749 18.3134 36.9804C18.357 36.886 18.2787 36.8382 18.1924 36.8382L16.1902 36.8333H15.1891C14.888 36.8409 14.5867 36.8293 14.2871 36.7984C13.9986 36.7699 13.7295 36.6403 13.5268 36.4324C13.4333 36.3391 13.3606 36.2269 13.3137 36.1033C13.2582 35.9332 13.3315 35.8148 13.4644 35.7114C13.9016 35.3874 14.3916 35.142 14.9125 34.9864C15.9973 34.6496 17.1584 34.6517 18.242 34.9923C18.8238 35.1674 19.3938 35.3902 19.9944 35.5015C20.512 35.5971 21.0394 35.6278 21.5645 35.593C22.7912 35.5138 23.9696 35.0838 24.9604 34.3538C25.1904 34.1808 24.8296 34.1012 24.6849 34.2126Z" fill="white"/>
<path d="M38.3003 33.3643C38.1953 34.1679 38.0743 34.9692 37.9375 35.7681C37.9054 35.709 37.8769 35.6478 37.8523 35.5851C37.7968 35.4429 37.5381 35.5165 37.4558 35.5981C37.2982 35.7651 37.2655 35.9591 37.2635 36.1829C37.2592 36.4761 37.2141 36.7673 37.1297 37.0481L36.7104 38.54C36.5321 38.3567 36.3736 38.155 36.2376 37.9382C36.1524 37.802 35.7341 37.9492 35.8411 38.1153C36.0501 38.4519 36.3126 38.7519 36.6182 39.0034C36.7322 39.0969 36.9929 39.0442 37.0355 38.891C37.1994 38.3096 37.3646 37.7274 37.5311 37.1446C37.6065 36.8751 37.6997 36.6055 37.7056 36.3231C37.7056 36.2803 37.7056 36.2336 37.7056 36.1858C37.7557 36.2485 37.8103 36.3074 37.8691 36.3619C37.9683 36.4564 38.2587 36.4027 38.2864 36.2495C38.4602 35.2755 38.6112 34.2985 38.7394 33.3185C38.7593 33.1286 38.3211 33.2002 38.3003 33.3643Z" fill="white"/>
<path d="M41.8149 30.3457C41.1222 29.5834 40.6066 28.6765 40.3053 27.6902C40.2657 27.56 39.8345 27.6803 39.8731 27.8066C40.1484 28.7035 40.5982 29.5368 41.1964 30.2582C41.0566 30.2482 40.9169 30.2433 40.7771 30.2452C40.5432 30.2452 40.1824 30.2204 40.005 30.4074C39.9237 30.4909 39.9296 30.5973 39.9267 30.7057C39.9267 30.8758 39.9197 31.0459 39.9158 31.2159C39.9158 31.4427 39.9049 31.6694 39.8999 31.8962C39.1737 31.5656 38.4011 31.3489 37.6092 31.2537C37.5006 31.2398 37.3909 31.2694 37.3039 31.3363C37.2435 31.391 37.2435 31.4546 37.3386 31.4656C38.2457 31.5752 39.1254 31.8496 39.9346 32.2751C40.0337 32.3268 40.3222 32.2533 40.3251 32.121C40.3357 31.6462 40.3463 31.1722 40.3569 30.6988C40.3569 30.6282 40.3658 30.5555 40.3638 30.4849C40.3638 30.474 40.343 30.472 40.3341 30.472H40.3866C40.5053 30.4626 40.6245 30.4606 40.7434 30.466C40.9892 30.4718 41.2344 30.495 41.4769 30.5357C41.5394 30.5416 41.922 30.4631 41.8149 30.3457Z" fill="white"/>
<path d="M63.6055 25H60.5391L60.5586 22.8906H63.6055C64.4323 22.8906 65.1257 22.7083 65.6855 22.3438C66.2454 21.9727 66.6686 21.4421 66.9551 20.752C67.2415 20.0553 67.3848 19.222 67.3848 18.252V17.5195C67.3848 16.7708 67.3034 16.11 67.1406 15.5371C66.9779 14.9642 66.737 14.4824 66.418 14.0918C66.1055 13.7012 65.7181 13.4049 65.2559 13.2031C64.7936 13.0013 64.263 12.9004 63.6641 12.9004H60.4805V10.7812H63.6641C64.6146 10.7812 65.4805 10.9408 66.2617 11.2598C67.0495 11.5788 67.7298 12.0378 68.3027 12.6367C68.8822 13.2292 69.3249 13.9388 69.6309 14.7656C69.9434 15.5924 70.0996 16.5169 70.0996 17.5391V18.252C70.0996 19.2676 69.9434 20.1921 69.6309 21.0254C69.3249 21.8522 68.8822 22.5618 68.3027 23.1543C67.7298 23.7467 67.0462 24.2025 66.252 24.5215C65.4577 24.8405 64.5755 25 63.6055 25ZM62.043 10.7812V25H59.3574V10.7812H62.043ZM72.1305 19.8242V19.6191C72.1305 18.8444 72.2411 18.1315 72.4625 17.4805C72.6839 16.8229 73.0061 16.2533 73.4293 15.7715C73.8525 15.2897 74.3701 14.9154 74.982 14.6484C75.594 14.375 76.2906 14.2383 77.0719 14.2383C77.8661 14.2383 78.5693 14.375 79.1812 14.6484C79.7997 14.9154 80.3206 15.2897 80.7437 15.7715C81.1669 16.2533 81.4892 16.8229 81.7105 17.4805C81.9319 18.1315 82.0426 18.8444 82.0426 19.6191V19.8242C82.0426 20.5924 81.9319 21.3053 81.7105 21.9629C81.4892 22.6139 81.1669 23.1836 80.7437 23.6719C80.3206 24.1536 79.803 24.528 79.191 24.7949C78.579 25.0618 77.8792 25.1953 77.0914 25.1953C76.3102 25.1953 75.6103 25.0618 74.9918 24.7949C74.3733 24.528 73.8525 24.1536 73.4293 23.6719C73.0061 23.1836 72.6839 22.6139 72.4625 21.9629C72.2411 21.3053 72.1305 20.5924 72.1305 19.8242ZM74.7086 19.6191V19.8242C74.7086 20.2865 74.7542 20.7194 74.8453 21.123C74.9365 21.5267 75.0764 21.8815 75.2652 22.1875C75.454 22.4935 75.6982 22.7344 75.9977 22.9102C76.3036 23.0794 76.6682 23.1641 77.0914 23.1641C77.5081 23.1641 77.8661 23.0794 78.1656 22.9102C78.4651 22.7344 78.7092 22.4935 78.898 22.1875C79.0934 21.8815 79.2366 21.5267 79.3277 21.123C79.4189 20.7194 79.4645 20.2865 79.4645 19.8242V19.6191C79.4645 19.1634 79.4189 18.737 79.3277 18.3398C79.2366 17.9362 79.0934 17.5814 78.898 17.2754C78.7092 16.9629 78.4618 16.7188 78.1559 16.543C77.8564 16.3607 77.4951 16.2695 77.0719 16.2695C76.6552 16.2695 76.2971 16.3607 75.9977 16.543C75.6982 16.7188 75.454 16.9629 75.2652 17.2754C75.0764 17.5814 74.9365 17.9362 74.8453 18.3398C74.7542 18.737 74.7086 19.1634 74.7086 19.6191ZM91.0363 14.4336H93.3801V24.6777C93.3801 25.6348 93.1717 26.4453 92.7551 27.1094C92.3449 27.7799 91.7687 28.2878 91.0266 28.6328C90.2844 28.9844 89.4217 29.1602 88.4387 29.1602C88.0155 29.1602 87.5565 29.1016 87.0617 28.9844C86.5734 28.8672 86.1014 28.6816 85.6457 28.4277C85.1965 28.1803 84.8221 27.8581 84.5227 27.4609L85.6848 25.9375C86.0363 26.3477 86.4335 26.6569 86.8762 26.8652C87.3189 27.0801 87.7974 27.1875 88.3117 27.1875C88.8326 27.1875 89.2753 27.0898 89.6398 26.8945C90.0109 26.7057 90.2941 26.4258 90.4895 26.0547C90.6913 25.6901 90.7922 25.2409 90.7922 24.707V16.8457L91.0363 14.4336ZM83.8977 19.8438V19.6387C83.8977 18.8314 83.9953 18.099 84.1906 17.4414C84.3859 16.7773 84.6659 16.2077 85.0305 15.7324C85.4016 15.2572 85.8475 14.8893 86.3684 14.6289C86.8957 14.3685 87.4882 14.2383 88.1457 14.2383C88.8423 14.2383 89.4283 14.3652 89.9035 14.6191C90.3853 14.873 90.7824 15.2344 91.0949 15.7031C91.4139 16.1719 91.6613 16.7285 91.8371 17.373C92.0194 18.0111 92.1594 18.7142 92.257 19.4824V20.0391C92.1659 20.7878 92.0194 21.4746 91.8176 22.0996C91.6223 22.7246 91.3618 23.2715 91.0363 23.7402C90.7108 24.2025 90.3072 24.5605 89.8254 24.8145C89.3436 25.0684 88.7772 25.1953 88.1262 25.1953C87.4751 25.1953 86.8892 25.0618 86.3684 24.7949C85.8475 24.528 85.4016 24.1536 85.0305 23.6719C84.6659 23.1901 84.3859 22.6237 84.1906 21.9727C83.9953 21.3216 83.8977 20.612 83.8977 19.8438ZM86.4758 19.6387V19.8438C86.4758 20.2995 86.5214 20.7259 86.6125 21.123C86.7036 21.5202 86.8436 21.8717 87.0324 22.1777C87.2212 22.4772 87.4589 22.7116 87.7453 22.8809C88.0318 23.0501 88.3736 23.1348 88.7707 23.1348C89.3046 23.1348 89.7408 23.0241 90.0793 22.8027C90.4243 22.5749 90.6848 22.2656 90.8605 21.875C91.0428 21.4779 91.16 21.0319 91.2121 20.5371V19.0039C91.1796 18.6133 91.1079 18.252 90.9973 17.9199C90.8931 17.5879 90.7466 17.3014 90.5578 17.0605C90.369 16.8197 90.1281 16.6309 89.8352 16.4941C89.5422 16.3574 89.1939 16.2891 88.7902 16.2891C88.3996 16.2891 88.0578 16.377 87.7648 16.5527C87.4719 16.722 87.231 16.9596 87.0422 17.2656C86.8534 17.5716 86.7102 17.9264 86.6125 18.3301C86.5214 18.7337 86.4758 19.1699 86.4758 19.6387ZM100.85 25.1953C100.05 25.1953 99.3302 25.0651 98.6922 24.8047C98.0542 24.5443 97.5105 24.1829 97.0613 23.7207C96.6186 23.252 96.2768 22.7083 96.0359 22.0898C95.8016 21.4648 95.6844 20.7943 95.6844 20.0781V19.6875C95.6844 18.8737 95.8016 18.1348 96.0359 17.4707C96.2703 16.8001 96.6023 16.224 97.032 15.7422C97.4617 15.2604 97.976 14.8893 98.575 14.6289C99.174 14.3685 99.8348 14.2383 100.557 14.2383C101.306 14.2383 101.967 14.3652 102.54 14.6191C103.113 14.8665 103.591 15.2181 103.975 15.6738C104.36 16.1296 104.649 16.6764 104.845 17.3145C105.04 17.946 105.138 18.6458 105.138 19.4141V20.498H96.8563V18.7207H102.598V18.5254C102.585 18.1152 102.507 17.7409 102.364 17.4023C102.221 17.0573 101.999 16.7839 101.7 16.582C101.401 16.3737 101.013 16.2695 100.538 16.2695C100.154 16.2695 99.8185 16.3542 99.532 16.5234C99.2521 16.6862 99.0177 16.9206 98.8289 17.2266C98.6466 17.526 98.5099 17.8841 98.4188 18.3008C98.3276 18.7174 98.282 19.1797 98.282 19.6875V20.0781C98.282 20.5208 98.3406 20.931 98.4578 21.3086C98.5815 21.6862 98.7605 22.015 98.9949 22.2949C99.2358 22.5684 99.5223 22.7832 99.8543 22.9395C100.193 23.0892 100.577 23.1641 101.007 23.1641C101.547 23.1641 102.035 23.0599 102.471 22.8516C102.914 22.6367 103.298 22.321 103.624 21.9043L104.923 23.252C104.701 23.5775 104.402 23.89 104.024 24.1895C103.653 24.4889 103.204 24.7331 102.677 24.9219C102.149 25.1042 101.54 25.1953 100.85 25.1953ZM112.93 19.8145H109.268V17.7051H112.93C113.529 17.7051 114.014 17.6074 114.385 17.4121C114.763 17.2103 115.039 16.9368 115.215 16.5918C115.391 16.2402 115.479 15.8398 115.479 15.3906C115.479 14.9544 115.391 14.5475 115.215 14.1699C115.039 13.7923 114.763 13.4863 114.385 13.252C114.014 13.0176 113.529 12.9004 112.93 12.9004H110.147V25H107.461V10.7812H112.93C114.037 10.7812 114.981 10.9798 115.762 11.377C116.55 11.7676 117.149 12.3112 117.559 13.0078C117.976 13.6979 118.184 14.4857 118.184 15.3711C118.184 16.2891 117.976 17.0801 117.559 17.7441C117.149 18.4082 116.55 18.9193 115.762 19.2773C114.981 19.6354 114.037 19.8145 112.93 19.8145ZM119.902 19.8242V19.6191C119.902 18.8444 120.013 18.1315 120.234 17.4805C120.456 16.8229 120.778 16.2533 121.201 15.7715C121.624 15.2897 122.142 14.9154 122.754 14.6484C123.366 14.375 124.062 14.2383 124.844 14.2383C125.638 14.2383 126.341 14.375 126.953 14.6484C127.572 14.9154 128.092 15.2897 128.516 15.7715C128.939 16.2533 129.261 16.8229 129.482 17.4805C129.704 18.1315 129.814 18.8444 129.814 19.6191V19.8242C129.814 20.5924 129.704 21.3053 129.482 21.9629C129.261 22.6139 128.939 23.1836 128.516 23.6719C128.092 24.1536 127.575 24.528 126.963 24.7949C126.351 25.0618 125.651 25.1953 124.863 25.1953C124.082 25.1953 123.382 25.0618 122.764 24.7949C122.145 24.528 121.624 24.1536 121.201 23.6719C120.778 23.1836 120.456 22.6139 120.234 21.9629C120.013 21.3053 119.902 20.5924 119.902 19.8242ZM122.48 19.6191V19.8242C122.48 20.2865 122.526 20.7194 122.617 21.123C122.708 21.5267 122.848 21.8815 123.037 22.1875C123.226 22.4935 123.47 22.7344 123.77 22.9102C124.076 23.0794 124.44 23.1641 124.863 23.1641C125.28 23.1641 125.638 23.0794 125.938 22.9102C126.237 22.7344 126.481 22.4935 126.67 22.1875C126.865 21.8815 127.008 21.5267 127.1 21.123C127.191 20.7194 127.236 20.2865 127.236 19.8242V19.6191C127.236 19.1634 127.191 18.737 127.1 18.3398C127.008 17.9362 126.865 17.5814 126.67 17.2754C126.481 16.9629 126.234 16.7188 125.928 16.543C125.628 16.3607 125.267 16.2695 124.844 16.2695C124.427 16.2695 124.069 16.3607 123.77 16.543C123.47 16.7188 123.226 16.9629 123.037 17.2754C122.848 17.5814 122.708 17.9362 122.617 18.3398C122.526 18.737 122.48 19.1634 122.48 19.6191ZM138.379 22.4902V14.4336H140.976V25H138.535L138.379 22.4902ZM138.711 20.3027L139.511 20.2832C139.511 20.9928 139.433 21.6471 139.277 22.2461C139.121 22.8451 138.877 23.3659 138.545 23.8086C138.219 24.2448 137.806 24.5866 137.304 24.834C136.803 25.0749 136.211 25.1953 135.527 25.1953C135.006 25.1953 134.531 25.1237 134.101 24.9805C133.671 24.8307 133.3 24.5996 132.988 24.2871C132.682 23.9681 132.444 23.5612 132.275 23.0664C132.106 22.5651 132.021 21.9629 132.021 21.2598V14.4336H134.599V21.2793C134.599 21.6309 134.638 21.9238 134.716 22.1582C134.801 22.3926 134.915 22.5846 135.058 22.7344C135.208 22.8776 135.38 22.9818 135.576 23.0469C135.778 23.1055 135.992 23.1348 136.22 23.1348C136.845 23.1348 137.337 23.0111 137.695 22.7637C138.06 22.5098 138.32 22.1712 138.476 21.748C138.632 21.3184 138.711 20.8366 138.711 20.3027ZM146.191 16.6895V25H143.613V14.4336H146.034L146.191 16.6895ZM145.78 19.3359H145.019C145.025 18.5677 145.129 17.8711 145.331 17.2461C145.533 16.6211 145.816 16.084 146.181 15.6348C146.552 15.1855 146.991 14.8405 147.499 14.5996C148.007 14.3587 148.573 14.2383 149.198 14.2383C149.706 14.2383 150.165 14.3099 150.575 14.4531C150.986 14.5964 151.337 14.8242 151.63 15.1367C151.93 15.4492 152.157 15.8594 152.314 16.3672C152.476 16.8685 152.558 17.487 152.558 18.2227V25H149.96V18.2031C149.96 17.7214 149.889 17.3405 149.745 17.0605C149.609 16.7806 149.407 16.582 149.14 16.4648C148.879 16.3477 148.557 16.2891 148.173 16.2891C147.776 16.2891 147.428 16.3704 147.128 16.5332C146.835 16.6895 146.588 16.9076 146.386 17.1875C146.191 17.4674 146.041 17.7897 145.937 18.1543C145.833 18.5189 145.78 18.9128 145.78 19.3359ZM161.571 22.7539V10H164.169V25H161.825L161.571 22.7539ZM154.784 19.8438V19.6387C154.784 18.8314 154.875 18.099 155.057 17.4414C155.246 16.7773 155.52 16.2077 155.878 15.7324C156.236 15.2572 156.669 14.8893 157.177 14.6289C157.691 14.3685 158.274 14.2383 158.925 14.2383C159.556 14.2383 160.106 14.3652 160.575 14.6191C161.05 14.873 161.454 15.2344 161.786 15.7031C162.124 16.1719 162.395 16.7285 162.596 17.373C162.798 18.0111 162.945 18.7142 163.036 19.4824V20.0391C162.945 20.7878 162.798 21.4746 162.596 22.0996C162.395 22.7246 162.124 23.2715 161.786 23.7402C161.454 24.2025 161.05 24.5605 160.575 24.8145C160.1 25.0684 159.543 25.1953 158.905 25.1953C158.261 25.1953 157.681 25.0618 157.167 24.7949C156.659 24.528 156.226 24.1536 155.868 23.6719C155.516 23.1901 155.246 22.6237 155.057 21.9727C154.875 21.3216 154.784 20.612 154.784 19.8438ZM157.372 19.6387V19.8438C157.372 20.2995 157.411 20.7259 157.489 21.123C157.567 21.5202 157.694 21.8717 157.87 22.1777C158.046 22.4772 158.27 22.7116 158.544 22.8809C158.824 23.0501 159.162 23.1348 159.559 23.1348C160.067 23.1348 160.484 23.0241 160.809 22.8027C161.141 22.5749 161.399 22.2656 161.581 21.875C161.763 21.4779 161.88 21.0319 161.932 20.5371V19.0039C161.906 18.6133 161.838 18.252 161.727 17.9199C161.623 17.5879 161.473 17.3014 161.278 17.0605C161.089 16.8197 160.855 16.6309 160.575 16.4941C160.295 16.3574 159.963 16.2891 159.579 16.2891C159.182 16.2891 158.843 16.377 158.563 16.5527C158.283 16.722 158.055 16.9596 157.88 17.2656C157.704 17.5716 157.574 17.9264 157.489 18.3301C157.411 18.7337 157.372 19.1699 157.372 19.6387ZM178.524 10.7812V25H175.829L169.784 15.1367V25H167.098V10.7812H169.784L175.848 20.6543V10.7812H178.524ZM184.344 10.7812V25H181.658V10.7812H184.344ZM190.076 16.9238V19.043H183.641V16.9238H190.076ZM190.828 10.7812V12.9004H183.641V10.7812H190.828ZM199.353 10.7812V25H196.677V10.7812H199.353ZM203.767 10.7812V12.9004H192.312V10.7812H203.767ZM67.6777 43.3223H70.3633C70.2917 44.2728 70.028 45.1159 69.5723 45.8516C69.1165 46.5807 68.4818 47.1536 67.668 47.5703C66.8542 47.987 65.8678 48.1953 64.709 48.1953C63.8171 48.1953 63.013 48.0391 62.2969 47.7266C61.5872 47.4076 60.9785 46.9551 60.4707 46.3691C59.9694 45.7767 59.5853 45.0671 59.3184 44.2402C59.0514 43.4069 58.918 42.4727 58.918 41.4375V40.3535C58.918 39.3184 59.0547 38.3841 59.3281 37.5508C59.6016 36.7174 59.9922 36.0078 60.5 35.4219C61.0143 34.8294 61.6296 34.3737 62.3457 34.0547C63.0684 33.7357 63.8757 33.5762 64.7676 33.5762C65.9264 33.5762 66.9062 33.791 67.707 34.2207C68.5078 34.6439 69.1296 35.2266 69.5723 35.9688C70.015 36.7109 70.2819 37.5638 70.373 38.5273H67.6875C67.6354 37.9284 67.5052 37.4206 67.2969 37.0039C67.0951 36.5872 66.7891 36.2715 66.3789 36.0566C65.9753 35.8353 65.4382 35.7246 64.7676 35.7246C64.2467 35.7246 63.7878 35.8223 63.3906 36.0176C63 36.2129 62.6745 36.5059 62.4141 36.8965C62.1536 37.2806 61.9583 37.7624 61.8281 38.3418C61.6979 38.9147 61.6328 39.5788 61.6328 40.334V41.4375C61.6328 42.1602 61.6914 42.8079 61.8086 43.3809C61.9258 43.9538 62.1081 44.4388 62.3555 44.8359C62.6029 45.2331 62.9219 45.5358 63.3125 45.7441C63.7031 45.9525 64.1686 46.0566 64.709 46.0566C65.3665 46.0566 65.9004 45.9525 66.3105 45.7441C66.7272 45.5358 67.043 45.2298 67.2578 44.8262C67.4792 44.4225 67.6191 43.9212 67.6777 43.3223ZM72.1891 42.8242V42.6191C72.1891 41.8444 72.2997 41.1315 72.5211 40.4805C72.7424 39.8229 73.0647 39.2533 73.4879 38.7715C73.9111 38.2897 74.4286 37.9154 75.0406 37.6484C75.6526 37.375 76.3492 37.2383 77.1305 37.2383C77.9247 37.2383 78.6279 37.375 79.2398 37.6484C79.8583 37.9154 80.3792 38.2897 80.8023 38.7715C81.2255 39.2533 81.5478 39.8229 81.7691 40.4805C81.9905 41.1315 82.1012 41.8444 82.1012 42.6191V42.8242C82.1012 43.5924 81.9905 44.3053 81.7691 44.9629C81.5478 45.6139 81.2255 46.1836 80.8023 46.6719C80.3792 47.1536 79.8616 47.528 79.2496 47.7949C78.6376 48.0618 77.9378 48.1953 77.15 48.1953C76.3687 48.1953 75.6689 48.0618 75.0504 47.7949C74.4319 47.528 73.9111 47.1536 73.4879 46.6719C73.0647 46.1836 72.7424 45.6139 72.5211 44.9629C72.2997 44.3053 72.1891 43.5924 72.1891 42.8242ZM74.7672 42.6191V42.8242C74.7672 43.2865 74.8128 43.7194 74.9039 44.123C74.9951 44.5267 75.135 44.8815 75.3238 45.1875C75.5126 45.4935 75.7568 45.7344 76.0562 45.9102C76.3622 46.0794 76.7268 46.1641 77.15 46.1641C77.5667 46.1641 77.9247 46.0794 78.2242 45.9102C78.5237 45.7344 78.7678 45.4935 78.9566 45.1875C79.152 44.8815 79.2952 44.5267 79.3863 44.123C79.4775 43.7194 79.523 43.2865 79.523 42.8242V42.6191C79.523 42.1634 79.4775 41.737 79.3863 41.3398C79.2952 40.9362 79.152 40.5814 78.9566 40.2754C78.7678 39.9629 78.5204 39.7188 78.2145 39.543C77.915 39.3607 77.5536 39.2695 77.1305 39.2695C76.7138 39.2695 76.3557 39.3607 76.0562 39.543C75.7568 39.7188 75.5126 39.9629 75.3238 40.2754C75.135 40.5814 74.9951 40.9362 74.9039 41.3398C74.8128 41.737 74.7672 42.1634 74.7672 42.6191ZM86.9055 39.6895V48H84.3273V37.4336H86.7492L86.9055 39.6895ZM86.4953 42.3359H85.7336C85.7401 41.5677 85.8443 40.8711 86.0461 40.2461C86.2479 39.6211 86.5311 39.084 86.8957 38.6348C87.2668 38.1855 87.7062 37.8405 88.2141 37.5996C88.7219 37.3587 89.2883 37.2383 89.9133 37.2383C90.4211 37.2383 90.8801 37.3099 91.2902 37.4531C91.7004 37.5964 92.052 37.8242 92.3449 38.1367C92.6444 38.4492 92.8723 38.8594 93.0285 39.3672C93.1913 39.8685 93.2727 40.487 93.2727 41.2227V48H90.675V41.2031C90.675 40.7214 90.6034 40.3405 90.4602 40.0605C90.3234 39.7806 90.1216 39.582 89.8547 39.4648C89.5943 39.3477 89.272 39.2891 88.8879 39.2891C88.4908 39.2891 88.1424 39.3704 87.843 39.5332C87.55 39.6895 87.3026 39.9076 87.1008 40.1875C86.9055 40.4674 86.7557 40.7897 86.6516 41.1543C86.5474 41.5189 86.4953 41.9128 86.4953 42.3359ZM98.4773 39.6895V48H95.8992V37.4336H98.3211L98.4773 39.6895ZM98.0672 42.3359H97.3055C97.312 41.5677 97.4161 40.8711 97.618 40.2461C97.8198 39.6211 98.103 39.084 98.4676 38.6348C98.8387 38.1855 99.2781 37.8405 99.7859 37.5996C100.294 37.3587 100.86 37.2383 101.485 37.2383C101.993 37.2383 102.452 37.3099 102.862 37.4531C103.272 37.5964 103.624 37.8242 103.917 38.1367C104.216 38.4492 104.444 38.8594 104.6 39.3672C104.763 39.8685 104.845 40.487 104.845 41.2227V48H102.247V41.2031C102.247 40.7214 102.175 40.3405 102.032 40.0605C101.895 39.7806 101.693 39.582 101.427 39.4648C101.166 39.3477 100.844 39.2891 100.46 39.2891C100.063 39.2891 99.7143 39.3704 99.4148 39.5332C99.1219 39.6895 98.8745 39.9076 98.6727 40.1875C98.4773 40.4674 98.3276 40.7897 98.2234 41.1543C98.1193 41.5189 98.0672 41.9128 98.0672 42.3359ZM112.266 48.1953C111.465 48.1953 110.746 48.0651 110.108 47.8047C109.47 47.5443 108.926 47.1829 108.477 46.7207C108.034 46.252 107.692 45.7083 107.452 45.0898C107.217 44.4648 107.1 43.7943 107.1 43.0781V42.6875C107.1 41.8737 107.217 41.1348 107.452 40.4707C107.686 39.8001 108.018 39.224 108.448 38.7422C108.877 38.2604 109.392 37.8893 109.991 37.6289C110.59 37.3685 111.25 37.2383 111.973 37.2383C112.722 37.2383 113.383 37.3652 113.955 37.6191C114.528 37.8665 115.007 38.2181 115.391 38.6738C115.775 39.1296 116.065 39.6764 116.26 40.3145C116.455 40.946 116.553 41.6458 116.553 42.4141V43.498H108.272V41.7207H114.014V41.5254C114.001 41.1152 113.923 40.7409 113.78 40.4023C113.636 40.0573 113.415 39.7839 113.116 39.582C112.816 39.3737 112.429 39.2695 111.954 39.2695C111.569 39.2695 111.234 39.3542 110.948 39.5234C110.668 39.6862 110.433 39.9206 110.245 40.2266C110.062 40.526 109.926 40.8841 109.834 41.3008C109.743 41.7174 109.698 42.1797 109.698 42.6875V43.0781C109.698 43.5208 109.756 43.931 109.873 44.3086C109.997 44.6862 110.176 45.015 110.411 45.2949C110.651 45.5684 110.938 45.7832 111.27 45.9395C111.608 46.0892 111.993 46.1641 112.422 46.1641C112.963 46.1641 113.451 46.0599 113.887 45.8516C114.33 45.6367 114.714 45.321 115.039 44.9043L116.338 46.252C116.117 46.5775 115.817 46.89 115.44 47.1895C115.069 47.4889 114.62 47.7331 114.092 47.9219C113.565 48.1042 112.956 48.1953 112.266 48.1953ZM123.018 46.1641C123.382 46.1641 123.708 46.0924 123.994 45.9492C124.281 45.806 124.508 45.6042 124.678 45.3438C124.854 45.0833 124.948 44.7806 124.961 44.4355H127.393C127.38 45.1517 127.178 45.793 126.787 46.3594C126.396 46.9258 125.876 47.375 125.225 47.707C124.58 48.0326 123.857 48.1953 123.057 48.1953C122.243 48.1953 121.533 48.0586 120.928 47.7852C120.322 47.5117 119.818 47.1309 119.414 46.6426C119.017 46.1543 118.717 45.5879 118.516 44.9434C118.32 44.2988 118.223 43.6087 118.223 42.873V42.5605C118.223 41.8249 118.32 41.1348 118.516 40.4902C118.717 39.8457 119.017 39.2793 119.414 38.791C119.818 38.3027 120.322 37.9219 120.928 37.6484C121.533 37.375 122.24 37.2383 123.047 37.2383C123.9 37.2383 124.648 37.4043 125.293 37.7363C125.944 38.0684 126.452 38.5371 126.816 39.1426C127.188 39.748 127.38 40.4609 127.393 41.2812H124.961C124.948 40.9036 124.863 40.5651 124.707 40.2656C124.551 39.9661 124.329 39.7253 124.043 39.543C123.757 39.3607 123.408 39.2695 122.998 39.2695C122.562 39.2695 122.197 39.3607 121.904 39.543C121.618 39.7253 121.393 39.9759 121.23 40.2949C121.074 40.6074 120.964 40.959 120.898 41.3496C120.84 41.7337 120.811 42.1374 120.811 42.5605V42.873C120.811 43.3027 120.84 43.7129 120.898 44.1035C120.964 44.4941 121.074 44.8457 121.23 45.1582C121.393 45.4642 121.618 45.7083 121.904 45.8906C122.197 46.0729 122.568 46.1641 123.018 46.1641ZM134.511 37.4336V39.2891H128.457V37.4336H134.511ZM130.078 34.8359H132.666V44.9531C132.666 45.2656 132.708 45.5065 132.793 45.6758C132.877 45.8451 133.004 45.959 133.173 46.0176C133.343 46.0762 133.545 46.1055 133.779 46.1055C133.948 46.1055 134.104 46.0957 134.248 46.0762C134.391 46.0566 134.511 46.0371 134.609 46.0176L134.619 47.9512C134.404 48.0228 134.16 48.0814 133.886 48.127C133.619 48.1725 133.317 48.1953 132.978 48.1953C132.399 48.1953 131.891 48.0977 131.455 47.9023C131.018 47.7005 130.68 47.3783 130.439 46.9355C130.198 46.4863 130.078 45.8939 130.078 45.1582V34.8359Z" fill="#E9579F"/>
</g>
<defs>
<clipPath id="clip0_5_125">
<rect width="203" height="54" fill="white"/>
</clipPath>
</defs>
</svg>
